<svg xmlns="http://www.w3.org/2000/svg" xmlns:svg="http://www.w3.org/2000/svg" id="svg2" width="234" height="333" version="1.1"><title id="title896">Ace of Clubs Playing Card</title><metadata id="metadata7"/><g id="layer1" transform="translate(0,-719.36216)"><g id="g921"><rect id="rect4266" width="233.244" height="332.244" x=".378" y="719.74" rx="8.919" ry="8.946" style="fill:#fff;fill-opacity:1;stroke:gray;stroke-width:.75590551;stroke-linecap:butt;stroke-linejoin:miter;stroke-miterlimit:4;stroke-dasharray:none;stroke-opacity:1"/><g style="stroke-width:3.18132639" id="g5492-7-8-1" transform="matrix(0.01882914,0,0,0.01889089,-28.914567,764.98044)"><rect style="fill:#000;fill-opacity:1;stroke:none;stroke-width:3.18132639" id="rect4124-6-9-7" width="85.256" height="295.685" x="2406.706" y="536.549"/><path id="path3979-1-6-1-2-4" d="m 2917.8563,395.12877 c 67.135,120.80453 23.601,273.14486 -97.235,340.26188 -120.8361,67.11691 -273.2161,23.5947 -340.3501,-97.20972 -17.88,-32.17311 -28.44,-67.89332 -30.889,-104.57183 -9.342,137.92083 -128.747,242.09126 -266.6621,232.71366 -137.914,-9.37771 -242.111,-128.75233 -232.731,-266.63076 9.38,-137.87843 128.786,-242.04886 266.7,-232.67126 36.206,2.4619 71.4431,12.76531 103.7251,30.22171 -118.1921,-70.88592 -156.8751,-224.529044 -85.9451,-343.145874 70.9301,-118.616826 224.6131,-157.289636 343.2611,-86.378126 118.647,70.911526 157.3301,224.554657 86.4,343.17148 -21.341,35.68961 -51.243,65.49972 -86.812,86.88252 121.024,-66.97031 273.4041,-23.4481 340.5381,97.35632 z" style="fill:#000;fill-opacity:1;stroke:none;stroke-width:3.18132639"/></g><g style="stroke-width:3.18132639" id="g5492-7-8-8-4" transform="matrix(0.01882924,0,0,-0.01889089,171.24295,1006.7439)"><rect style="fill:#000;fill-opacity:1;stroke:none;stroke-width:3.18132639" id="rect4124-6-9-8-8" width="85.256" height="295.685" x="2406.706" y="536.549"/><path id="path3979-1-6-1-2-2-8" d="m 2917.8563,395.12877 c 67.135,120.80453 23.601,273.14486 -97.235,340.26188 -120.8361,67.11691 -273.2161,23.5947 -340.3501,-97.20972 -17.88,-32.17311 -28.44,-67.89332 -30.889,-104.57183 -9.342,137.92083 -128.747,242.09126 -266.6621,232.71366 -137.914,-9.37771 -242.111,-128.75233 -232.731,-266.63076 9.38,-137.87843 128.786,-242.04886 266.7,-232.67126 36.206,2.4619 71.4431,12.76531 103.7251,30.22171 -118.1921,-70.88592 -156.8751,-224.529044 -85.9451,-343.145874 70.9301,-118.616826 224.6131,-157.289636 343.2611,-86.378126 118.647,70.911526 157.3301,224.554657 86.4,343.17148 -21.341,35.68961 -51.243,65.49972 -86.812,86.88252 121.024,-66.97031 273.4041,-23.4481 340.5381,97.35632 z" style="fill:#000;fill-opacity:1;stroke:none;stroke-width:3.18132639"/></g><g style="stroke-width:3.18132639" id="g5492-7-7" transform="matrix(0.05648742,0,0,0.05667266,-21.360402,867.03374)"><rect style="fill:#000;fill-opacity:1;stroke:none;stroke-width:3.18132639" id="rect4124-6-6" width="85.256" height="295.685" x="2406.706" y="536.549"/><path id="path3979-1-6-1-1" d="m 2917.8563,395.12877 c 67.135,120.80453 23.601,273.14486 -97.235,340.26188 -120.8361,67.11691 -273.2161,23.5947 -340.3501,-97.20972 -17.88,-32.17311 -28.44,-67.89332 -30.889,-104.57183 -9.342,137.92083 -128.747,242.09126 -266.6621,232.71366 -137.914,-9.37771 -242.111,-128.75233 -232.731,-266.63076 9.38,-137.87843 128.786,-242.04886 266.7,-232.67126 36.206,2.4619 71.4431,12.76531 103.7251,30.22171 -118.1921,-70.88592 -156.8751,-224.529044 -85.9451,-343.145874 70.9301,-118.616826 224.6131,-157.289636 343.2611,-86.378126 118.647,70.911526 157.3301,224.554657 86.4,343.17148 -21.341,35.68961 -51.243,65.49972 -86.812,86.88252 121.024,-66.97031 273.4041,-23.4481 340.5381,97.35632 z" style="fill:#000;fill-opacity:1;stroke:none;stroke-width:3.18132639"/></g><g id="text3755-0" aria-label="A" transform="scale(0.83054504,1.2040286)" style="font-style:normal;font-variant:normal;font-weight:700;font-stretch:normal;font-size:3.77201176px;line-height:0%;font-family:'Levenim MT';-inkscape-font-specification:'Sans Bold';letter-spacing:0;word-spacing:0;fill:#000;fill-opacity:1;stroke:none;stroke-width:1"><path id="path898" d="M 32.051408,627.48846 H 27.39565 l -1.839905,-4.84774 h -9.5995 l -1.919901,4.84774 H 9.3805865 l 9.0715285,-23.53477 h 4.543764 z m -8.175575,-9.21552 -3.119838,-8.07958 -3.135837,8.07958 z" style="font-size:32.76629639px;line-height:1.25;stroke-width:1"/></g><g id="text3755-2-2" aria-label="A" transform="scale(-0.8305451,-1.2040285)" style="font-style:normal;font-variant:normal;font-weight:700;font-stretch:normal;font-size:3.77201176px;line-height:0%;font-family:'Levenim MT';-inkscape-font-specification:'Sans Bold';letter-spacing:0;word-spacing:0;fill:#000;fill-opacity:1;stroke:none;stroke-width:1"><path id="path901" d="m -249.69128,-844.00842 h -4.65575 l -1.83991,-4.84775 h -9.5995 l -1.9199,4.84775 h -4.65576 l 9.07153,-23.53478 h 4.54376 z m -8.17557,-9.21552 -3.11984,-8.07958 -3.13584,8.07958 z" style="font-size:32.76629639px;line-height:1.25;stroke-width:1"/></g></g></g></svg>