<svg xmlns="http://www.w3.org/2000/svg" xmlns:svg="http://www.w3.org/2000/svg" id="svg2" width="234" height="333" version="1.1"><title id="title889">Nine of Diamonds Playing Card</title><metadata id="metadata7"/><g id="layer1" transform="translate(0,-719.36216)"><g id="g922"><rect id="rect4266" width="233.244" height="332.244" x=".378" y="719.74" rx="8.919" ry="8.946" style="fill:#fff;fill-opacity:1;stroke:gray;stroke-width:.75590551;stroke-linecap:butt;stroke-linejoin:miter;stroke-miterlimit:4;stroke-dasharray:none;stroke-opacity:1"/><path id="path4884-1" d="M 58.629672,814.07624 86.87338,785.73971 58.629672,757.40317 30.385965,785.73971 Z" style="fill:red;fill-opacity:1;stroke:none;stroke-width:1"/><path id="path4884-1-4" d="M 58.629676,1014.3212 86.87338,985.98462 58.629676,957.64809 30.385965,985.98462 Z" style="fill:red;fill-opacity:1;stroke:none;stroke-width:1"/><path id="path4884-1-4-1" d="M 58.629676,947.57285 86.87338,919.23632 58.629676,890.89979 30.385965,919.23632 Z" style="fill:red;fill-opacity:1;stroke:none;stroke-width:1"/><path id="path4884-1-7" d="M 58.629672,880.82455 86.87338,852.48801 58.629672,824.15148 30.385965,852.48801 Z" style="fill:red;fill-opacity:1;stroke:none;stroke-width:1"/><path id="path4884-1-40" d="M 175.37033,814.07623 203.61404,785.7397 175.37033,757.40316 147.12662,785.7397 Z" style="fill:red;fill-opacity:1;stroke:none;stroke-width:1"/><path id="path4884-1-4-9" d="m 175.37033,1014.3212 28.24371,-28.33659 -28.24371,-28.33654 -28.24371,28.33654 z" style="fill:red;fill-opacity:1;stroke:none;stroke-width:1"/><path id="path4884-1-4-1-4" d="M 175.37033,947.57284 203.61404,919.2363 175.37033,890.89978 147.12662,919.2363 Z" style="fill:red;fill-opacity:1;stroke:none;stroke-width:1"/><path id="path4884-1-7-8" d="M 175.37033,880.82454 203.61404,852.488 175.37033,824.15146 147.12662,852.488 Z" style="fill:red;fill-opacity:1;stroke:none;stroke-width:1"/><path id="path4884-1-40-8-2" d="M 117,914.1987 145.24371,885.86217 117,857.52563 88.756294,885.86217 Z" style="fill:red;fill-opacity:1;stroke:none;stroke-width:1"/><path id="path4884-1-4-5-3" d="m 17.205569,780.7021 9.414569,-9.44551 -9.414569,-9.44552 -9.4145688,9.44552 z" style="fill:red;fill-opacity:1;stroke:none;stroke-width:1"/><path id="path4884-1-4-5-3-5" d="m 216.79443,991.02224 9.41457,9.44556 -9.41457,9.4455 -9.41457,-9.4455 z" style="fill:red;fill-opacity:1;stroke:none;stroke-width:1"/><g id="text3755" aria-label="9" transform="scale(0.99079139,1.0092942)" style="font-style:normal;font-variant:normal;font-weight:700;font-stretch:normal;font-size:3.77201176px;line-height:0%;font-family:'Levenim MT';-inkscape-font-specification:'Sans Bold';letter-spacing:0;word-spacing:0;fill:red;fill-opacity:1;stroke:none;stroke-width:1"><path id="path897" d="m 26.867551,734.10756 q 0,5.99023 -2.12433,9.7413 -2.660197,4.70797 -8.19111,4.70797 -3.23434,0 -5.339532,-1.28225 -2.5453681,-1.56932 -2.5453681,-4.63142 0,-0.66983 0.9377672,-0.66983 h 2.8324399 q 0.555005,0 0.937767,0.63155 0.574143,0.93777 0.880353,1.2057 0.784663,0.63156 2.296573,0.63156 2.545368,0 3.961588,-2.37312 1.11001,-1.91381 1.243977,-4.70798 -2.239158,1.77985 -5.35867,1.77985 -3.961588,0 -6.315575,-2.79417 -2.2200206,-2.62192 -2.2200206,-6.66006 0,-4.24866 2.4305396,-6.71747 2.43054,-2.48796 6.660061,-2.48796 9.91354,0 9.91354,13.62633 z m -5.224704,-4.30607 q 0,-2.08605 -1.129148,-3.54055 -1.243977,-1.6076 -3.253478,-1.6076 -2.066916,0 -3.291754,1.56932 -1.110011,1.43536 -1.110011,3.57883 0,2.18174 1.090872,3.59796 1.186563,1.55019 3.310893,1.55019 2.105192,0 3.291754,-1.56932 1.090872,-1.41622 1.090872,-3.57883 z" style="font-size:39.19484329px;line-height:1.25;stroke-width:1"/></g><g id="text3755-2" aria-label="9" transform="scale(-0.99079139,-1.0092942)" style="font-style:normal;font-variant:normal;font-weight:700;font-stretch:normal;font-size:3.77201176px;line-height:0%;font-family:'Levenim MT';-inkscape-font-specification:'Sans Bold';letter-spacing:0;word-spacing:0;fill:red;fill-opacity:1;stroke:none;stroke-width:1"><path id="path900" d="m -209.3073,-1021.3016 q 0,5.9902 -2.12433,9.7413 -2.66019,4.708 -8.19111,4.708 -3.23434,0 -5.33953,-1.2823 -2.54537,-1.5693 -2.54537,-4.6314 0,-0.6699 0.93777,-0.6699 h 2.83244 q 0.555,0 0.93777,0.6316 0.57414,0.9378 0.88035,1.2057 0.78466,0.6316 2.29657,0.6316 2.54537,0 3.96159,-2.3732 1.11001,-1.9138 1.24398,-4.7079 -2.23916,1.7798 -5.35867,1.7798 -3.96159,0 -6.31558,-2.7942 -2.22002,-2.6219 -2.22002,-6.66 0,-4.2487 2.43054,-6.7175 2.43054,-2.4879 6.66006,-2.4879 9.91354,0 9.91354,13.6263 z m -5.2247,-4.3061 q 0,-2.086 -1.12915,-3.5405 -1.24398,-1.6076 -3.25348,-1.6076 -2.06691,0 -3.29175,1.5693 -1.11001,1.4353 -1.11001,3.5788 0,2.1818 1.09087,3.598 1.18656,1.5502 3.31089,1.5502 2.10519,0 3.29176,-1.5694 1.09087,-1.4162 1.09087,-3.5788 z" style="font-size:39.19484329px;line-height:1.25;stroke-width:1"/></g></g></g></svg>