<svg xmlns="http://www.w3.org/2000/svg" xmlns:svg="http://www.w3.org/2000/svg" id="svg2" width="234" height="333" version="1.1"><title id="title918">Seven of Diamonds Playing Card</title><metadata id="metadata7"/><g id="layer1" transform="translate(0,-719.36216)"><g id="g916"><rect id="rect4266" width="233.244" height="332.244" x=".378" y="719.74" rx="8.919" ry="8.946" style="fill:#fff;fill-opacity:1;stroke:gray;stroke-width:.75590551;stroke-linecap:butt;stroke-linejoin:miter;stroke-miterlimit:4;stroke-dasharray:none;stroke-opacity:1"/><path id="path4884-1" d="M 58.629672,814.07624 86.87338,785.73971 58.629672,757.40317 30.385965,785.73971 Z" style="fill:red;fill-opacity:1;stroke:none;stroke-width:1"/><path id="path4884-1-4" d="M 58.629676,1014.3212 86.87338,985.98462 58.629676,957.64809 30.385965,985.98462 Z" style="fill:red;fill-opacity:1;stroke:none;stroke-width:1"/><path id="path4884-1-7" d="M 58.629672,914.1987 86.87338,885.86217 58.629672,857.52563 30.385965,885.86217 Z" style="fill:red;fill-opacity:1;stroke:none;stroke-width:1"/><path id="path4884-1-40" d="M 175.37033,814.07623 203.61404,785.7397 175.37033,757.40316 147.12662,785.7397 Z" style="fill:red;fill-opacity:1;stroke:none;stroke-width:1"/><path id="path4884-1-4-9" d="m 175.37033,1014.3212 28.24371,-28.33659 -28.24371,-28.33654 -28.24371,28.33654 z" style="fill:red;fill-opacity:1;stroke:none;stroke-width:1"/><path id="path4884-1-4-1-4" d="M 117,864.13747 145.24371,835.80094 117,807.46441 88.756294,835.80094 Z" style="fill:red;fill-opacity:1;stroke:none;stroke-width:1"/><path id="path4884-1-7-8" d="m 175.37033,914.1987 28.24371,-28.33653 -28.24371,-28.33654 -28.24371,28.33654 z" style="fill:red;fill-opacity:1;stroke:none;stroke-width:1"/><path id="path4884-1-4-5-3" d="m 17.205569,780.7021 9.414569,-9.44551 -9.414569,-9.44552 -9.4145688,9.44552 z" style="fill:red;fill-opacity:1;stroke:none;stroke-width:1"/><path id="path4884-1-4-5-3-5" d="m 216.79443,991.02224 9.41457,9.44556 -9.41457,9.4455 -9.41457,-9.4455 z" style="fill:red;fill-opacity:1;stroke:none;stroke-width:1"/><g id="text3755-8" aria-label="7" transform="scale(1.0298762,0.9709905)" style="font-style:normal;font-variant:normal;font-weight:700;font-stretch:normal;font-size:3.77201176px;line-height:0%;font-family:'Levenim MT';-inkscape-font-specification:'Sans Bold';letter-spacing:0;word-spacing:0;fill:red;fill-opacity:1;stroke:none;stroke-width:1"><path id="path893" d="m 25.847902,752.97249 -7.70991,24.17272 q -0.30676,0.94073 -1.554252,0.94073 h -3.026702 q -0.940732,0 -0.940732,-0.59307 0,-0.57262 3.865181,-11.57509 2.249575,-6.33972 4.478701,-12.65898 h -9.059656 q -0.06135,0.89983 -0.368112,2.61769 -0.28631,0.18406 -0.613521,0.18406 H 8.5466193 q -0.981633,0 -0.981633,-0.71578 0,-0.34766 0.59307,-6.44197 H 25.847902 Z" style="font-size:41.88301086px;line-height:1.25;stroke-width:1"/></g><g id="text3755-2-4" aria-label="7" transform="scale(-1.0298762,-0.9709905)" style="font-style:normal;font-variant:normal;font-weight:700;font-stretch:normal;font-size:3.77201176px;line-height:0%;font-family:'Levenim MT';-inkscape-font-specification:'Sans Bold';letter-spacing:0;word-spacing:0;fill:red;fill-opacity:1;stroke:none;stroke-width:1"><path id="path896" d="m -201.36388,-1071.6841 -7.70991,24.1727 q -0.30676,0.9407 -1.55425,0.9407 h -3.02671 q -0.94073,0 -0.94073,-0.593 0,-0.5727 3.86518,-11.5751 2.24958,-6.3398 4.4787,-12.659 h -9.05965 q -0.0614,0.8998 -0.36811,2.6177 -0.28631,0.184 -0.61352,0.184 h -2.37228 q -0.98164,0 -0.98164,-0.7157 0,-0.3477 0.59307,-6.442 h 17.68985 z" style="font-size:41.88301086px;line-height:1.25;stroke-width:1"/></g></g></g></svg>