<svg xmlns="http://www.w3.org/2000/svg" xmlns:svg="http://www.w3.org/2000/svg" id="svg2" width="234" height="333" version="1.1"><title id="title885">Five of Diamonds Playing Card</title><metadata id="metadata7"/><g id="layer1" transform="translate(0,-719.36216)"><g id="g914"><rect id="rect4266" width="233.244" height="332.244" x=".378" y="719.74" rx="8.919" ry="8.946" style="fill:#fff;fill-opacity:1;stroke:gray;stroke-width:.75590551;stroke-linecap:butt;stroke-linejoin:miter;stroke-miterlimit:4;stroke-dasharray:none;stroke-opacity:1"/><path id="path4884-1" d="M 58.629672,814.07624 86.87338,785.73971 58.629672,757.40317 30.385965,785.73971 Z" style="fill:red;fill-opacity:1;stroke:none;stroke-width:1"/><path id="path4884-1-4" d="M 58.629676,1014.3212 86.87338,985.98462 58.629676,957.64809 30.385965,985.98462 Z" style="fill:red;fill-opacity:1;stroke:none;stroke-width:1"/><path id="path4884-1-40" d="M 175.37033,814.07623 203.61404,785.7397 175.37033,757.40316 147.12662,785.7397 Z" style="fill:red;fill-opacity:1;stroke:none;stroke-width:1"/><path id="path4884-1-4-9" d="m 175.37033,1014.3212 28.24371,-28.33659 -28.24371,-28.33654 -28.24371,28.33654 z" style="fill:red;fill-opacity:1;stroke:none;stroke-width:1"/><path id="path4884-1-4-1-4" d="M 117,914.1987 145.24371,885.86217 117,857.52564 88.756294,885.86217 Z" style="fill:red;fill-opacity:1;stroke:none;stroke-width:1"/><path id="path4884-1-4-5-3" d="m 17.205569,780.7021 9.414569,-9.44551 -9.414569,-9.44552 -9.4145688,9.44552 z" style="fill:red;fill-opacity:1;stroke:none;stroke-width:1"/><path id="path4884-1-4-5-3-5" d="m 216.79443,991.02224 9.41457,9.44556 -9.41457,9.4455 -9.41457,-9.4455 z" style="fill:red;fill-opacity:1;stroke:none;stroke-width:1"/><g id="text3755" aria-label="5" transform="scale(0.99509933,1.0049248)" style="font-style:normal;font-variant:normal;font-weight:700;font-stretch:normal;font-size:3.77201176px;line-height:0%;font-family:'Levenim MT';-inkscape-font-specification:'Sans Bold';letter-spacing:0;word-spacing:0;fill:red;fill-opacity:1;stroke:none;stroke-width:.99999994"><path id="path893" d="m 26.751238,742.30184 q 0,4.36509 -2.650231,6.93737 -2.630744,2.57228 -6.99583,2.57228 -4.189703,0 -6.625577,-2.04613 -2.6502312,-2.18254 -2.6502312,-6.2943 0,-0.66256 1.0522976,-0.66256 h 2.5527956 q 0.409227,0 0.759993,0.11692 0.116922,0.19487 0.155896,0.50667 0.331279,2.20203 1.266654,3.15689 1.052298,1.07178 3.234841,1.07178 2.182543,0 3.527145,-1.53947 1.266655,-1.46152 1.266655,-3.66355 0,-5.43687 -4.501495,-5.43687 -1.636907,0 -3.293302,1.13024 h -3.215353 q -0.448201,0 -0.857428,-0.11692 -0.1948699,-0.19487 -0.1948699,-0.4482 0,-2.76715 0.2923048,-6.97634 0.2533311,-3.50766 0.5066621,-6.99583 h 14.615243 q 0.506662,0 0.915889,0.15589 0.175383,0.38974 0.175383,2.72818 0,0.38974 -0.03897,0.64307 -0.136409,0.62359 -1.130245,0.62359 H 14.338024 q 0.05846,1.05229 -0.175383,3.21535 -0.233844,2.14357 -0.175383,3.19587 2.00716,-1.24717 4.189703,-1.24717 4.014321,0 6.35276,2.72818 2.221517,2.57228 2.221517,6.64506 z" style="font-size:39.90935898px;line-height:1.25;stroke-width:.99999994"/></g><g id="text3755-2" aria-label="5" transform="scale(-0.99509933,-1.0049248)" style="font-style:normal;font-variant:normal;font-weight:700;font-stretch:normal;font-size:3.77201176px;line-height:0%;font-family:'Levenim MT';-inkscape-font-specification:'Sans Bold';letter-spacing:0;word-spacing:0;fill:red;fill-opacity:1;stroke:none;stroke-width:.99999994"><path id="path896" d="m -208.40118,-1020.7398 q 0,4.3651 -2.65023,6.9374 -2.63075,2.5723 -6.99583,2.5723 -4.18971,0 -6.62558,-2.0462 -2.65023,-2.1825 -2.65023,-6.2943 0,-0.6625 1.0523,-0.6625 h 2.55279 q 0.40923,0 0.76,0.1169 0.11692,0.1949 0.15589,0.5067 0.33128,2.202 1.26666,3.1569 1.05229,1.0717 3.23484,1.0717 2.18254,0 3.52714,-1.5394 1.26666,-1.4616 1.26666,-3.6636 0,-5.4369 -4.5015,-5.4369 -1.63691,0 -3.2933,1.1303 h -3.21535 q -0.4482,0 -0.85743,-0.1169 -0.19487,-0.1949 -0.19487,-0.4482 0,-2.7672 0.2923,-6.9764 0.25333,-3.5076 0.50667,-6.9958 h 14.61524 q 0.50666,0 0.91589,0.1559 0.17538,0.3897 0.17538,2.7282 0,0.3897 -0.039,0.643 -0.13641,0.6236 -1.13025,0.6236 h -10.58144 q 0.0585,1.0523 -0.17538,3.2154 -0.23384,2.1435 -0.17538,3.1958 2.00716,-1.2471 4.1897,-1.2471 4.01432,0 6.35276,2.7282 2.22152,2.5722 2.22152,6.645 z" style="font-size:39.90935898px;line-height:1.25;stroke-width:.99999994"/></g></g></g></svg>