<svg xmlns="http://www.w3.org/2000/svg" xmlns:svg="http://www.w3.org/2000/svg" id="svg2" width="234" height="333" version="1.1"><title id="title888">Eight of Diamonds Playing Card</title><metadata id="metadata7"/><g id="layer1" transform="translate(0,-719.36216)"><g id="g920"><rect id="rect4266" width="233.244" height="332.244" x=".378" y="719.74" rx="8.919" ry="8.946" style="fill:#fff;fill-opacity:1;stroke:gray;stroke-width:.75590551;stroke-linecap:butt;stroke-linejoin:miter;stroke-miterlimit:4;stroke-dasharray:none;stroke-opacity:1"/><path id="path4884-1" d="M 58.629672,814.07624 86.87338,785.73971 58.629672,757.40317 30.385965,785.73971 Z" style="fill:red;fill-opacity:1;stroke:none;stroke-width:1"/><path id="path4884-1-4" d="M 58.629676,1014.3212 86.87338,985.98462 58.629676,957.64809 30.385965,985.98462 Z" style="fill:red;fill-opacity:1;stroke:none;stroke-width:1"/><path id="path4884-1-4-1" d="M 117,964.25993 145.24371,935.92339 117,907.58687 88.756294,935.92339 Z" style="fill:red;fill-opacity:1;stroke:none;stroke-width:1"/><path id="path4884-1-7" d="M 58.629672,914.1987 86.87338,885.86217 58.629672,857.52563 30.385965,885.86217 Z" style="fill:red;fill-opacity:1;stroke:none;stroke-width:1"/><path id="path4884-1-40" d="M 175.37033,814.07623 203.61404,785.7397 175.37033,757.40316 147.12662,785.7397 Z" style="fill:red;fill-opacity:1;stroke:none;stroke-width:1"/><path id="path4884-1-4-9" d="m 175.37033,1014.3212 28.24371,-28.33659 -28.24371,-28.33654 -28.24371,28.33654 z" style="fill:red;fill-opacity:1;stroke:none;stroke-width:1"/><path id="path4884-1-4-1-4" d="M 117,864.13747 145.24371,835.80094 117,807.46441 88.756294,835.80094 Z" style="fill:red;fill-opacity:1;stroke:none;stroke-width:1"/><path id="path4884-1-7-8" d="m 175.37033,914.1987 28.24371,-28.33653 -28.24371,-28.33654 -28.24371,28.33654 z" style="fill:red;fill-opacity:1;stroke:none;stroke-width:1"/><path id="path4884-1-4-5-3" d="m 17.205569,780.7021 9.414569,-9.44551 -9.414569,-9.44552 -9.4145688,9.44552 z" style="fill:red;fill-opacity:1;stroke:none;stroke-width:1"/><path id="path4884-1-4-5-3-5" d="m 216.79443,991.02224 9.41457,9.44556 -9.41457,9.4455 -9.41457,-9.4455 z" style="fill:red;fill-opacity:1;stroke:none;stroke-width:1"/><g id="text3755" aria-label="8" transform="scale(0.97854983,1.0219204)" style="font-style:normal;font-variant:normal;font-weight:700;font-stretch:normal;font-size:3.77201176px;line-height:0%;font-family:'Levenim MT';-inkscape-font-specification:'Sans Bold';letter-spacing:0;word-spacing:0;fill:red;fill-opacity:1;stroke:none;stroke-width:1"><path id="path896" d="m 27.203661,731.19934 q 0,4.10166 -2.910854,6.23754 -2.551723,1.87127 -6.785692,1.87127 -4.196166,0 -6.747889,-2.00358 -2.7974443,-2.21149 -2.7974443,-6.29425 0,-4.29067 4.5174943,-6.31315 -3.4779036,-2.21149 -3.4779036,-6.31315 0,-3.61021 2.8352476,-5.36807 2.324903,-1.43652 6.124134,-1.43652 3.459002,0 5.689397,1.68224 2.457215,1.89017 2.457215,5.25466 0,3.85594 -3.459002,6.16194 4.555297,1.92797 4.555297,6.52107 z M 21.325248,719.2346 q 0,-3.53461 -3.78033,-3.53461 -1.72005,0 -2.740739,0.92618 -1.020689,0.90728 -1.020689,2.60843 0,1.64444 1.077394,2.60842 1.020689,0.94509 2.684034,0.94509 1.625542,0 2.702936,-0.96399 1.077394,-0.96398 1.077394,-2.58952 z m 0.888378,11.79463 q 0,-1.96578 -1.342017,-3.09988 -1.266411,-1.07739 -3.269986,-1.07739 -1.965771,0 -3.232182,1.0963 -1.360919,1.153 -1.360919,3.08097 0,2.02247 1.323116,3.13767 1.228607,1.03959 3.288887,1.03959 2.041378,0 3.269985,-1.05849 1.323116,-1.1152 1.323116,-3.11877 z" style="font-size:38.71057892px;line-height:1.25;stroke-width:1"/></g><g id="text3755-2" aria-label="8" transform="scale(-0.97854983,-1.0219204)" style="font-style:normal;font-variant:normal;font-weight:700;font-stretch:normal;font-size:3.77201176px;line-height:0%;font-family:'Levenim MT';-inkscape-font-specification:'Sans Bold';letter-spacing:0;word-spacing:0;fill:red;fill-opacity:1;stroke:none;stroke-width:1"><path id="path899" d="m -211.92571,-1002.5212 q 0,4.10168 -2.91086,6.23756 -2.55172,1.87127 -6.78569,1.87127 -4.19617,0 -6.74789,-2.00358 -2.79744,-2.21149 -2.79744,-6.29425 0,-4.2907 4.51749,-6.3131 -3.4779,-2.2115 -3.4779,-6.3132 0,-3.6102 2.83525,-5.3681 2.3249,-1.4365 6.12413,-1.4365 3.459,0 5.6894,1.6823 2.45721,1.8901 2.45721,5.2546 0,3.8559 -3.459,6.162 4.5553,1.9279 4.5553,6.521 z m -5.87842,-11.9647 q 0,-3.5346 -3.78033,-3.5346 -1.72005,0 -2.74074,0.9261 -1.02068,0.9073 -1.02068,2.6085 0,1.6444 1.07739,2.6084 1.02069,0.9451 2.68403,0.9451 1.62555,0 2.70294,-0.964 1.07739,-0.964 1.07739,-2.5895 z m 0.88838,11.7946 q 0,-1.9658 -1.34202,-3.0999 -1.26641,-1.0774 -3.26998,-1.0774 -1.96577,0 -3.23218,1.0963 -1.36092,1.153 -1.36092,3.081 0,2.0225 1.32311,3.13768 1.22861,1.03959 3.28889,1.03959 2.04138,0 3.26999,-1.05849 1.32311,-1.11518 1.32311,-3.11878 z" style="font-size:38.71057892px;line-height:1.25;stroke-width:1"/></g></g></g></svg>