<svg xmlns="http://www.w3.org/2000/svg" xmlns:svg="http://www.w3.org/2000/svg" id="svg2" width="234" height="333" version="1.1"><title id="title935">Ten of Diamonds Playing Card</title><metadata id="metadata7"/><g id="layer1" transform="translate(0,-719.36216)"><g id="g933"><rect id="rect4266" width="233.244" height="332.244" x=".378" y="719.74" rx="8.919" ry="8.946" style="fill:#fff;fill-opacity:1;stroke:gray;stroke-width:.75590551;stroke-linecap:butt;stroke-linejoin:miter;stroke-miterlimit:4;stroke-dasharray:none;stroke-opacity:1"/><path id="path4884-1" d="M 58.629672,814.07624 86.87338,785.73971 58.629672,757.40317 30.385965,785.73971 Z" style="fill:red;fill-opacity:1;stroke:none;stroke-width:1"/><path id="path4884-1-4" d="M 58.629676,1014.3212 86.87338,985.98462 58.629676,957.64809 30.385965,985.98462 Z" style="fill:red;fill-opacity:1;stroke:none;stroke-width:1"/><path id="path4884-1-4-1" d="M 58.629676,947.57285 86.87338,919.23632 58.629676,890.89979 30.385965,919.23632 Z" style="fill:red;fill-opacity:1;stroke:none;stroke-width:1"/><path id="path4884-1-7" d="M 58.629672,880.82455 86.87338,852.48801 58.629672,824.15148 30.385965,852.48801 Z" style="fill:red;fill-opacity:1;stroke:none;stroke-width:1"/><path id="path4884-1-40" d="M 175.37033,814.07623 203.61404,785.7397 175.37033,757.40316 147.12662,785.7397 Z" style="fill:red;fill-opacity:1;stroke:none;stroke-width:1"/><path id="path4884-1-4-9" d="m 175.37033,1014.3212 28.24371,-28.33659 -28.24371,-28.33654 -28.24371,28.33654 z" style="fill:red;fill-opacity:1;stroke:none;stroke-width:1"/><path id="path4884-1-4-1-4" d="M 175.37033,947.57284 203.61404,919.2363 175.37033,890.89978 147.12662,919.2363 Z" style="fill:red;fill-opacity:1;stroke:none;stroke-width:1"/><path id="path4884-1-7-8" d="M 175.37033,880.82454 203.61404,852.488 175.37033,824.15146 147.12662,852.488 Z" style="fill:red;fill-opacity:1;stroke:none;stroke-width:1"/><path id="path4884-1-40-8" d="M 117,980.947 145.24371,952.61047 117,924.27393 88.756294,952.61047 Z" style="fill:red;fill-opacity:1;stroke:none;stroke-width:1"/><path id="path4884-1-40-8-2" d="M 117,847.4504 145.24371,819.11386 117,790.77732 88.756294,819.11386 Z" style="fill:red;fill-opacity:1;stroke:none;stroke-width:1"/><g id="text3216-7" aria-label="1" transform="scale(0.72184748,1.3853342)" style="font-style:normal;font-variant:normal;font-weight:700;font-stretch:normal;font-size:3.77201176px;line-height:0%;font-family:'Levenim MT';-inkscape-font-specification:'Sans Bold';letter-spacing:0;word-spacing:0;fill:red;fill-opacity:1;stroke:none;stroke-width:1"><path id="path900" d="m 23.835468,544.63039 q 0,0.35364 -0.127311,0.62241 -0.339497,0.11317 -0.735576,0.11317 H 12.533063 q -0.933616,0 -0.933616,-0.9902 0,-0.16975 0.02829,-0.53754 0.02829,-0.38193 0.02829,-0.57997 0,-0.93362 0.82045,-0.93362 h 3.522276 v -13.07061 h -4.300289 q -0.905324,0 -0.905324,-0.9902 0,-0.21219 0.04244,-0.67899 0.05658,-0.48096 0.05658,-0.72143 0,-0.48096 0.905324,-0.48096 0.254622,0 0.961907,0.0566 0.707284,0.0424 1.103364,0.0424 2.26331,0 2.744263,-1.57017 h 2.701827 v 17.41334 q 0.947761,0 2.036979,-0.0566 1.103363,-0.0707 1.315549,-0.0707 0.82045,0 1.018489,0.43852 0.155603,0.38193 0.155603,1.99454 z" style="font-size:28.97036934px;line-height:1.25;stroke-width:1"/></g><g id="text3990-14" aria-label="0" transform="scale(0.69918846,1.4302296)" style="font-style:normal;font-variant:normal;font-weight:700;font-stretch:normal;font-size:3.77201176px;line-height:0%;font-family:'Levenim MT';-inkscape-font-specification:'Sans Bold';letter-spacing:0;word-spacing:0;fill:red;fill-opacity:1;stroke:none;stroke-width:1"><path id="path897" d="m 38.072907,518.57679 q 0,9.66994 -6.685228,9.66994 -6.779767,0 -6.779767,-9.72396 0,-10.08862 6.914822,-10.08862 6.550173,0 6.550173,10.14264 z m -3.511433,-0.28362 q 0,-6.92833 -3.227817,-6.92833 -1.890772,0 -2.687597,2.74162 -0.499704,1.72871 -0.499704,4.30826 0,6.92833 3.187301,6.92833 1.904277,0 2.714608,-2.72811 0.513209,-1.75572 0.513209,-4.32177 z" style="font-size:27.65928841px;line-height:1.25;stroke-width:1"/></g><path id="path4884-1-4-5-3" d="m 17.205569,780.7021 9.414569,-9.44551 -9.414569,-9.44552 -9.4145688,9.44552 z" style="fill:red;fill-opacity:1;stroke:none;stroke-width:1"/><g id="text3216-7-2" aria-label="1" transform="scale(-0.72184748,-1.3853342)" style="font-style:normal;font-variant:normal;font-weight:700;font-stretch:normal;font-size:3.77201176px;line-height:0%;font-family:'Levenim MT';-inkscape-font-specification:'Sans Bold';letter-spacing:0;word-spacing:0;fill:red;fill-opacity:1;stroke:none;stroke-width:1"><path id="path906" d="m -300.33276,-734.2844 q 0,0.35364 -0.12731,0.62241 -0.3395,0.11316 -0.73558,0.11316 h -10.43951 q -0.93362,0 -0.93362,-0.9902 0,-0.16974 0.0283,-0.53753 0.0283,-0.38194 0.0283,-0.57998 0,-0.93361 0.82045,-0.93361 h 3.52228 v -13.07062 h -4.30029 q -0.90532,0 -0.90532,-0.9902 0,-0.21218 0.0424,-0.67899 0.0566,-0.48095 0.0566,-0.72143 0,-0.48095 0.90532,-0.48095 0.25462,0 0.96191,0.0566 0.70728,0.0424 1.10336,0.0424 2.26331,0 2.74426,-1.57017 h 2.70183 v 17.41334 q 0.94776,0 2.03698,-0.0566 1.10336,-0.0707 1.31555,-0.0707 0.82045,0 1.01849,0.43851 0.1556,0.38194 0.1556,1.99455 z" style="font-size:28.97036934px;line-height:1.25;stroke-width:1"/></g><g id="text3990-14-6" aria-label="0" transform="scale(-0.69918846,-1.4302296)" style="font-style:normal;font-variant:normal;font-weight:700;font-stretch:normal;font-size:3.77201176px;line-height:0%;font-family:'Levenim MT';-inkscape-font-specification:'Sans Bold';letter-spacing:0;word-spacing:0;fill:red;fill-opacity:1;stroke:none;stroke-width:1"><path id="path903" d="m -296.60082,-720.19244 q 0,9.66995 -6.68523,9.66995 -6.77977,0 -6.77977,-9.72397 0,-10.08862 6.91482,-10.08862 6.55018,0 6.55018,10.14264 z m -3.51144,-0.28361 q 0,-6.92833 -3.22781,-6.92833 -1.89078,0 -2.6876,2.74162 -0.4997,1.7287 -0.4997,4.30826 0,6.92832 3.1873,6.92832 1.90427,0 2.7146,-2.72811 0.51321,-1.75572 0.51321,-4.32176 z" style="font-size:27.65928841px;line-height:1.25;stroke-width:1"/></g><path id="path4884-1-4-5-3-5" d="m 216.79443,991.02224 9.41457,9.44556 -9.41457,9.4455 -9.41457,-9.4455 z" style="fill:red;fill-opacity:1;stroke:none;stroke-width:1"/></g></g></svg>