<svg xmlns="http://www.w3.org/2000/svg" xmlns:svg="http://www.w3.org/2000/svg" id="svg2" width="234" height="333" version="1.1"><title id="title890">Four of Diamonds Playing Card</title><metadata id="metadata7"/><g id="layer1" transform="translate(0,-719.36216)"><g id="g912"><rect id="rect4266" width="233.244" height="332.244" x=".378" y="719.74" rx="8.919" ry="8.946" style="fill:#fff;fill-opacity:1;stroke:gray;stroke-width:.75590551;stroke-linecap:butt;stroke-linejoin:miter;stroke-miterlimit:4;stroke-dasharray:none;stroke-opacity:1"/><path id="path4884-1" d="M 58.629672,814.07624 86.87338,785.73971 58.629672,757.40317 30.385965,785.73971 Z" style="fill:red;fill-opacity:1;stroke:none;stroke-width:1"/><path id="path4884-1-4" d="M 58.629676,1014.3212 86.87338,985.98462 58.629676,957.64809 30.385965,985.98462 Z" style="fill:red;fill-opacity:1;stroke:none;stroke-width:1"/><path id="path4884-1-40" d="M 175.37033,814.07623 203.61404,785.7397 175.37033,757.40316 147.12662,785.7397 Z" style="fill:red;fill-opacity:1;stroke:none;stroke-width:1"/><path id="path4884-1-4-9" d="m 175.37033,1014.3212 28.24371,-28.33659 -28.24371,-28.33654 -28.24371,28.33654 z" style="fill:red;fill-opacity:1;stroke:none;stroke-width:1"/><path id="path4884-1-4-5-3" d="m 17.205569,780.7021 9.414569,-9.44551 -9.414569,-9.44552 -9.4145688,9.44552 z" style="fill:red;fill-opacity:1;stroke:none;stroke-width:1"/><path id="path4884-1-4-5-3-5" d="m 216.79443,991.02224 9.41457,9.44556 -9.41457,9.4455 -9.41457,-9.4455 z" style="fill:red;fill-opacity:1;stroke:none;stroke-width:1"/><g id="text3755-5" aria-label="4" transform="scale(0.9367271,1.0675468)" style="font-style:normal;font-variant:normal;font-weight:700;font-stretch:normal;font-size:3.77201176px;line-height:0%;font-family:'Levenim MT';-inkscape-font-specification:'Sans Bold';letter-spacing:0;word-spacing:0;fill:red;fill-opacity:1;stroke:none;stroke-width:1"><path id="path892" d="m 28.418244,706.77169 q 0,0.38656 -0.14726,0.75471 -0.331335,0.18407 -0.699485,0.18407 H 15.753885 q -1.362154,0 -1.362154,-1.38056 0,-0.22089 0.03682,-0.77311 0.03681,-0.55223 0.03681,-0.84675 0,-0.64426 0.276112,-0.82834 0.202483,-0.12885 0.901967,-0.12885 h 4.601875 v -2.83475 H 9.9187087 q -1.6014522,0 -1.6014522,-1.49101 0,-0.2577 0.055223,-0.93878 0.055222,-0.69949 0.055222,-1.10445 0,-0.62586 0.7178924,-1.56464 l 10.6395332,-13.9897 q 0.497003,-0.66267 1.25171,-0.66267 h 2.42979 q 0.865152,0 0.865152,0.95719 v 15.02052 q 0.66267,0 1.509415,-0.0368 0.865153,-0.0368 1.10445,-0.0368 0.994005,0 1.233302,0.497 0.239298,0.4786 0.239298,2.39298 0,0.34974 -0.05522,0.53382 -0.110445,0.42337 -0.846745,0.42337 h -3.184497 v 2.83475 q 0.681078,0 1.54623,-0.0368 0.865153,-0.0368 1.086042,-0.0368 1.049228,0 1.270118,0.53382 0.184075,0.44178 0.184075,2.55864 z m -8.099299,-19.69602 q -1.012413,1.54623 -7.473444,10.0689 h 7.399814 q 0,-0.9756 -0.03682,-3.35016 -0.05522,-2.15368 -0.03682,-3.36858 0.01841,-1.84075 0.14726,-3.35016 z" style="font-size:37.69855499px;line-height:1.25;stroke-width:1"/></g><g id="text3755-2-28" aria-label="4" transform="scale(-0.9367271,-1.0675468)" style="font-style:normal;font-variant:normal;font-weight:700;font-stretch:normal;font-size:3.77201176px;line-height:0%;font-family:'Levenim MT';-inkscape-font-specification:'Sans Bold';letter-spacing:0;word-spacing:0;fill:red;fill-opacity:1;stroke:none;stroke-width:1"><path id="path895" d="m -221.38771,-952.85044 q 0,0.38656 -0.14726,0.75471 -0.33134,0.18407 -0.69949,0.18407 h -11.81761 q -1.36215,0 -1.36215,-1.38056 0,-0.22089 0.0368,-0.77311 0.0368,-0.55223 0.0368,-0.84675 0,-0.64426 0.27611,-0.82834 0.20248,-0.12885 0.90197,-0.12885 h 4.60187 v -2.83475 h -10.32661 q -1.60145,0 -1.60145,-1.49101 0,-0.25771 0.0552,-0.93878 0.0552,-0.69949 0.0552,-1.10445 0,-0.62586 0.71789,-1.56464 l 10.63953,-13.9897 q 0.49701,-0.66267 1.25171,-0.66267 h 2.42979 q 0.86515,0 0.86515,0.95719 v 15.02052 q 0.66267,0 1.50942,-0.0368 0.86515,-0.0368 1.10445,-0.0368 0.994,0 1.2333,0.497 0.2393,0.4786 0.2393,2.39298 0,0.34974 -0.0552,0.53381 -0.11045,0.42338 -0.84675,0.42338 h -3.1845 v 2.83475 q 0.68108,0 1.54623,-0.0368 0.86516,-0.0368 1.08605,-0.0368 1.04922,0 1.27011,0.53382 0.18408,0.44178 0.18408,2.55864 z m -8.0993,-19.69602 q -1.01241,1.54623 -7.47344,10.0689 h 7.39981 q 0,-0.9756 -0.0368,-3.35017 -0.0552,-2.15367 -0.0368,-3.36857 0.0184,-1.84075 0.14726,-3.35016 z" style="font-size:37.69855499px;line-height:1.25;stroke-width:1"/></g></g></g></svg>