<svg xmlns="http://www.w3.org/2000/svg" xmlns:svg="http://www.w3.org/2000/svg" id="svg2" width="234" height="333" version="1.1"><title id="title889">Six of Diamonds Playing Card</title><metadata id="metadata7"/><g id="layer1" transform="translate(0,-719.36216)"><g id="g919"><rect id="rect4266" width="233.244" height="332.244" x=".378" y="719.74" rx="8.919" ry="8.946" style="fill:#fff;fill-opacity:1;stroke:gray;stroke-width:.75590551;stroke-linecap:butt;stroke-linejoin:miter;stroke-miterlimit:4;stroke-dasharray:none;stroke-opacity:1"/><path id="path4884-1" d="M 58.629672,814.07624 86.87338,785.73971 58.629672,757.40317 30.385965,785.73971 Z" style="fill:red;fill-opacity:1;stroke:none;stroke-width:1"/><path id="path4884-1-4" d="M 58.629676,1014.3212 86.87338,985.98462 58.629676,957.64809 30.385965,985.98462 Z" style="fill:red;fill-opacity:1;stroke:none;stroke-width:1"/><path id="path4884-1-7" d="M 58.629672,914.1987 86.87338,885.86217 58.629672,857.52563 30.385965,885.86217 Z" style="fill:red;fill-opacity:1;stroke:none;stroke-width:1"/><path id="path4884-1-40" d="M 175.37033,814.07623 203.61404,785.7397 175.37033,757.40316 147.12662,785.7397 Z" style="fill:red;fill-opacity:1;stroke:none;stroke-width:1"/><path id="path4884-1-4-9" d="m 175.37033,1014.3212 28.24371,-28.33659 -28.24371,-28.33654 -28.24371,28.33654 z" style="fill:red;fill-opacity:1;stroke:none;stroke-width:1"/><path id="path4884-1-7-8" d="m 175.37033,914.1987 28.24371,-28.33653 -28.24371,-28.33654 -28.24371,28.33654 z" style="fill:red;fill-opacity:1;stroke:none;stroke-width:1"/><path id="path4884-1-4-5-3" d="m 17.205569,780.7021 9.414569,-9.44551 -9.414569,-9.44552 -9.4145688,9.44552 z" style="fill:red;fill-opacity:1;stroke:none;stroke-width:1"/><path id="path4884-1-4-5-3-5" d="m 216.79443,991.02224 9.41457,9.44556 -9.41457,9.4455 -9.41457,-9.4455 z" style="fill:red;fill-opacity:1;stroke:none;stroke-width:1"/><g id="text3755-0" aria-label="6" transform="scale(0.99029285,1.0098023)" style="font-style:normal;font-variant:normal;font-weight:700;font-stretch:normal;font-size:3.77201176px;line-height:0%;font-family:'Levenim MT';-inkscape-font-specification:'Sans Bold';letter-spacing:0;word-spacing:0;fill:red;fill-opacity:1;stroke:none;stroke-width:.99999994"><path id="path897" d="m 26.881078,738.99851 q 0,4.24652 -2.467574,6.71409 -2.448446,2.46758 -6.694968,2.46758 -9.8511667,0 -9.8511667,-13.61948 0,-6.00634 2.1232612,-9.7364 2.6397305,-4.7056 8.1869895,-4.7056 3.213584,0 5.336845,1.31986 2.544088,1.56854 2.544088,4.59084 0,0.6695 -0.937296,0.6695 h -2.831014 q -0.554726,0 -0.937296,-0.63124 -0.554726,-0.9373 -0.87991,-1.2051 -0.784268,-0.63124 -2.295417,-0.63124 -2.544088,0 -3.959596,2.37193 -1.109451,1.91285 -1.243351,4.70561 2.238032,-1.77895 5.355974,-1.77895 3.959596,0 6.312398,2.79276 2.238033,2.63973 2.238033,6.67584 z m -4.992534,-0.11477 q 0,-2.18065 -1.090323,-3.59616 -1.205094,-1.56853 -3.328355,-1.56853 -2.104133,0 -3.290099,1.56853 -1.071194,1.41551 -1.071194,3.59616 0,2.085 1.12858,3.53876 1.224223,1.58767 3.251841,1.58767 2.065876,0 3.290099,-1.56854 1.109451,-1.43463 1.109451,-3.55789 z" style="font-size:39.17512512px;line-height:1.25;stroke-width:.99999994"/></g><g id="text3755-2-2" aria-label="6" transform="scale(-0.99029285,-1.0098023)" style="font-style:normal;font-variant:normal;font-weight:700;font-stretch:normal;font-size:3.77201176px;line-height:0%;font-family:'Levenim MT';-inkscape-font-specification:'Sans Bold';letter-spacing:0;word-spacing:0;fill:red;fill-opacity:1;stroke:none;stroke-width:.99999994"><path id="path900" d="m -209.41268,-1015.5274 q 0,4.2466 -2.46758,6.7141 -2.44844,2.4676 -6.69497,2.4676 -9.85116,0 -9.85116,-13.6195 0,-6.0063 2.12326,-9.7364 2.63973,-4.7056 8.18699,-4.7056 3.21358,0 5.33684,1.3199 2.54409,1.5685 2.54409,4.5908 0,0.6695 -0.93729,0.6695 h -2.83102 q -0.55473,0 -0.9373,-0.6312 -0.55472,-0.9373 -0.87991,-1.2051 -0.78426,-0.6313 -2.29541,-0.6313 -2.54409,0 -3.9596,2.372 -1.10945,1.9128 -1.24335,4.7056 2.23803,-1.779 5.35598,-1.779 3.95959,0 6.31239,2.7928 2.23804,2.6397 2.23804,6.6758 z m -4.99254,-0.1147 q 0,-2.1807 -1.09032,-3.5962 -1.2051,-1.5685 -3.32836,-1.5685 -2.10413,0 -3.29009,1.5685 -1.0712,1.4155 -1.0712,3.5962 0,2.085 1.12858,3.5387 1.22422,1.5877 3.25184,1.5877 2.06588,0 3.2901,-1.5685 1.10945,-1.4347 1.10945,-3.5579 z" style="font-size:39.17512512px;line-height:1.25;stroke-width:.99999994"/></g></g></g></svg>