<svg xmlns="http://www.w3.org/2000/svg" xmlns:svg="http://www.w3.org/2000/svg" id="svg2" width="234" height="333" version="1.1"><title id="title899">Six of Spades Playing Card</title><metadata id="metadata7"/><g id="layer1" transform="translate(0,-719.36216)"><g id="g923"><rect id="rect4266" width="233.244" height="332.244" x=".378" y="719.74" rx="8.919" ry="8.946" style="fill:#fff;fill-opacity:1;stroke:gray;stroke-width:.75590551;stroke-linecap:butt;stroke-linejoin:miter;stroke-miterlimit:4;stroke-dasharray:none;stroke-opacity:1"/><g id="text3755-0" aria-label="6" transform="scale(0.99029285,1.0098023)" style="font-style:normal;font-variant:normal;font-weight:700;font-stretch:normal;font-size:3.77201176px;line-height:0%;font-family:'Levenim MT';-inkscape-font-specification:'Sans Bold';letter-spacing:0;word-spacing:0;fill:#000;fill-opacity:1;stroke:none;stroke-width:.99999994"><path id="path901" d="m 26.881078,738.99851 q 0,4.24652 -2.467574,6.71409 -2.448446,2.46758 -6.694968,2.46758 -9.8511667,0 -9.8511667,-13.61948 0,-6.00634 2.1232612,-9.7364 2.6397305,-4.7056 8.1869895,-4.7056 3.213584,0 5.336845,1.31986 2.544088,1.56854 2.544088,4.59084 0,0.6695 -0.937296,0.6695 h -2.831014 q -0.554726,0 -0.937296,-0.63124 -0.554726,-0.9373 -0.87991,-1.2051 -0.784268,-0.63124 -2.295417,-0.63124 -2.544088,0 -3.959596,2.37193 -1.109451,1.91285 -1.243351,4.70561 2.238032,-1.77895 5.355974,-1.77895 3.959596,0 6.312398,2.79276 2.238033,2.63973 2.238033,6.67584 z m -4.992534,-0.11477 q 0,-2.18065 -1.090323,-3.59616 -1.205094,-1.56853 -3.328355,-1.56853 -2.104133,0 -3.290099,1.56853 -1.071194,1.41551 -1.071194,3.59616 0,2.085 1.12858,3.53876 1.224223,1.58767 3.251841,1.58767 2.065876,0 3.290099,-1.56854 1.109451,-1.43463 1.109451,-3.55789 z" style="font-size:39.17512512px;line-height:1.25;stroke-width:.99999994"/></g><g id="text3755-2-2" aria-label="6" transform="scale(-0.99029285,-1.0098023)" style="font-style:normal;font-variant:normal;font-weight:700;font-stretch:normal;font-size:3.77201176px;line-height:0%;font-family:'Levenim MT';-inkscape-font-specification:'Sans Bold';letter-spacing:0;word-spacing:0;fill:#000;fill-opacity:1;stroke:none;stroke-width:.99999994"><path id="path904" d="m -209.41267,-1015.5274 q 0,4.2466 -2.46757,6.7141 -2.44845,2.4676 -6.69497,2.4676 -9.85117,0 -9.85117,-13.6195 0,-6.0063 2.12326,-9.7364 2.63973,-4.7056 8.18699,-4.7056 3.21359,0 5.33685,1.3199 2.54409,1.5685 2.54409,4.5908 0,0.6695 -0.9373,0.6695 h -2.83101 q -0.55473,0 -0.9373,-0.6312 -0.55473,-0.9373 -0.87991,-1.2051 -0.78427,-0.6313 -2.29542,-0.6313 -2.54409,0 -3.95959,2.372 -1.10945,1.9128 -1.24335,4.7056 2.23803,-1.779 5.35597,-1.779 3.9596,0 6.3124,2.7928 2.23803,2.6397 2.23803,6.6758 z m -4.99253,-0.1147 q 0,-2.1807 -1.09033,-3.5962 -1.20509,-1.5685 -3.32835,-1.5685 -2.10413,0 -3.2901,1.5685 -1.07119,1.4155 -1.07119,3.5962 0,2.085 1.12858,3.5387 1.22422,1.5877 3.25184,1.5877 2.06587,0 3.2901,-1.5685 1.10945,-1.4347 1.10945,-3.5579 z" style="font-size:39.17512512px;line-height:1.25;stroke-width:.99999994"/></g><path id="path2985-3-11" d="m 12.898825,780.70209 c 0,-0.55605 -0.03079,-0.95768 -0.03079,-1.51377 1.149566,0 2.395148,0 3.544708,0 0,-1.3218 0,-1.41528 0,-2.73712 -2.243931,0.0723 -4.67246,0.23894 -6.7739019,-0.687 -1.6266179,-0.89273 -2.075448,-2.97087 -1.7474947,-4.67934 0.2807048,-1.92755 1.3522742,-3.6393 2.7501936,-4.95764 1.819108,-1.94577 4.139071,-3.2593 6.561151,-4.31616 2.472354,1.07475 4.843466,2.43125 6.685643,4.42831 1.659299,1.55933 2.764852,3.76316 2.730888,6.0706 0.03599,1.6655 -0.995685,3.42548 -2.697384,3.78891 -1.903705,0.52719 -3.830472,0.43365 -5.784745,0.35232 0,1.32184 0,1.41532 0,2.73712 1.14956,0 2.203119,0 3.352688,0 0,0.55609 0.03079,0.95772 0.03079,1.51377 -2.632285,-0.0186 -5.778625,-0.0186 -8.621752,0 z" style="fill:#000;stroke:none;stroke-width:1"/><path id="path2985-3-11-7" d="m 212.48766,991.02222 c 0,0.55606 -0.0308,0.95768 -0.0308,1.51377 1.14955,0 2.39513,0 3.54471,0 0,1.3218 0,1.41528 0,2.73712 -2.24393,-0.0723 -4.67248,-0.23894 -6.77391,0.687 -1.62662,0.89273 -2.07544,2.97087 -1.7475,4.67939 0.28071,1.9275 1.35228,3.6392 2.75018,4.9576 1.81912,1.9458 4.13909,3.2593 6.56118,4.3161 2.47235,-1.0747 4.84345,-2.4312 6.68563,-4.4283 1.65931,-1.5593 2.76487,-3.7631 2.73088,-6.07056 0.036,-1.6655 -0.99569,-3.42548 -2.69737,-3.78891 -1.90372,-0.52719 -3.83047,-0.43365 -5.78475,-0.35232 0,-1.32184 0,-1.41532 0,-2.73712 1.14955,0 2.20314,0 3.35269,0 0,-0.55609 0.0307,-0.95771 0.0307,-1.51377 -2.63231,0.0186 -5.77863,0.0186 -8.62177,0 z" style="fill:#000;stroke:none;stroke-width:1"/><path id="path2985-3-3" d="m 45.70946,814.07624 c 0,-1.66823 -0.09238,-2.87307 -0.09238,-4.5413 3.448704,0 7.185441,0 10.634123,0 0,-3.96545 0,-4.24592 0,-8.2114 -6.731793,0.2169 -14.01738,0.71685 -20.321702,-2.06095 -4.879854,-2.67821 -6.226348,-8.91266 -5.242485,-14.03808 0.842118,-5.78261 4.056821,-10.91785 8.250581,-14.87291 5.457325,-5.83729 12.417214,-9.77784 19.683448,-12.94844 7.417061,3.22422 14.530399,7.29373 20.056933,13.28492 4.977887,4.67796 8.294558,11.2895 8.192664,18.21177 0.107967,4.99649 -2.987067,10.27644 -8.092154,11.36674 -5.711113,1.58155 -11.491414,1.30096 -17.35423,1.05695 0,3.96548 0,4.24595 0,8.2114 3.448679,0 6.609354,0 10.058058,0 0,1.66823 0.0924,2.87307 0.0924,4.5413 -7.896858,-0.0556 -17.335871,-0.0556 -25.865256,0 z" style="fill:#000;stroke:none;stroke-width:1"/><path id="path2985-3-3-5" d="m 162.45012,814.07624 c 0,-1.66823 -0.0924,-2.87307 -0.0924,-4.5413 3.44871,0 7.18544,0 10.63413,0 0,-3.96545 0,-4.24592 0,-8.2114 -6.7318,0.2169 -14.01738,0.71685 -20.3217,-2.06095 -4.87986,-2.67821 -6.22636,-8.91266 -5.24249,-14.03808 0.84212,-5.78261 4.05682,-10.91785 8.25058,-14.87291 5.45733,-5.83729 12.41722,-9.77784 19.68345,-12.94844 7.41706,3.22422 14.5304,7.29373 20.05693,13.28492 4.97789,4.67796 8.29456,11.2895 8.19267,18.21177 0.10796,4.99649 -2.98707,10.27644 -8.09216,11.36674 -5.71111,1.58155 -11.49141,1.30096 -17.35423,1.05695 0,3.96548 0,4.24595 0,8.2114 3.44868,0 6.60936,0 10.05806,0 0,1.66823 0.0924,2.87307 0.0924,4.5413 -7.89686,-0.0556 -17.33587,-0.0556 -25.86526,0 z" style="fill:#000;stroke:none;stroke-width:1"/><path id="path2985-3-3-5-4-3" d="m 45.709463,914.1987 c 0,-1.66824 -0.09238,-2.87307 -0.09238,-4.54131 3.448704,0 7.185441,0 10.634123,0 0,-3.96545 0,-4.24592 0,-8.21139 -6.731793,0.2169 -14.01738,0.71685 -20.321702,-2.06095 -4.879857,-2.67822 -6.226351,-8.91266 -5.242488,-14.03808 0.842118,-5.78261 4.056824,-10.91785 8.250584,-14.87291 5.457325,-5.8373 12.417214,-9.77784 19.683448,-12.94845 7.417061,3.22423 14.530399,7.29373 20.056933,13.28493 4.977887,4.67795 8.294558,11.2895 8.192665,18.21177 0.107966,4.99649 -2.987068,10.27644 -8.092155,11.36673 -5.711113,1.58156 -11.491414,1.30097 -17.35423,1.05696 0,3.96547 0,4.24594 0,8.21139 3.448679,0 6.609354,0 10.058058,0 0,1.66824 0.0924,2.87307 0.0924,4.54131 -7.896859,-0.0556 -17.335872,-0.0556 -25.865258,0 z" style="fill:#000;stroke:none;stroke-width:1"/><path id="path2985-3-3-5-4-3-1" d="m 162.45012,914.1987 c 0,-1.66824 -0.0924,-2.87307 -0.0924,-4.54131 3.44871,0 7.18544,0 10.63413,0 0,-3.96545 0,-4.24592 0,-8.21139 -6.7318,0.2169 -14.01738,0.71685 -20.3217,-2.06095 -4.87986,-2.67822 -6.22636,-8.91266 -5.24249,-14.03808 0.84212,-5.78261 4.05682,-10.91785 8.25058,-14.87291 5.45733,-5.8373 12.41722,-9.77784 19.68345,-12.94845 7.41706,3.22423 14.5304,7.29373 20.05693,13.28493 4.97789,4.67795 8.29456,11.2895 8.19267,18.21177 0.10796,4.99649 -2.98707,10.27644 -8.09216,11.36673 -5.71111,1.58156 -11.49141,1.30097 -17.35423,1.05696 0,3.96547 0,4.24594 0,8.21139 3.44868,0 6.60936,0 10.05806,0 0,1.66824 0.0924,2.87307 0.0924,4.54131 -7.89686,-0.0556 -17.33587,-0.0556 -25.86526,0 z" style="fill:#000;stroke:none;stroke-width:1"/><path id="path2985-3-38-2" d="m 45.70946,957.64807 c 0,1.66823 -0.09238,2.87307 -0.09238,4.54131 3.448704,0 7.185441,0 10.634123,0 0,3.96548 0,4.24591 0,8.21139 -6.731793,-0.2169 -14.01738,-0.71685 -20.321702,2.06098 -4.879854,2.67818 -6.226348,8.91263 -5.242485,14.03805 0.842118,5.78261 4.056821,10.91788 8.250581,14.8729 5.457325,5.8373 12.417214,9.7779 19.683448,12.9485 7.417061,-3.2242 14.530399,-7.2937 20.056933,-13.285 4.977887,-4.67793 8.294558,-11.28947 8.192664,-18.21174 0.107967,-4.99646 -2.987067,-10.27644 -8.092154,-11.3667 -5.711113,-1.58159 -11.491414,-1.301 -17.35423,-1.05699 0,-3.96548 0,-4.24591 0,-8.21139 3.448679,0 6.609354,0 10.058058,0 0,-1.66824 0.0924,-2.87308 0.0924,-4.54131 -7.896858,0.0556 -17.335871,0.0556 -25.865256,0 z" style="fill:#000;stroke:none;stroke-width:1"/><path id="path2985-3-38-2-3" d="m 162.45012,957.64807 c 0,1.66824 -0.0924,2.87308 -0.0924,4.54131 3.44871,0 7.18544,0 10.63412,0 0,3.96548 0,4.24592 0,8.2114 -6.73179,-0.2169 -14.01738,-0.71685 -20.3217,2.06098 -4.87985,2.67818 -6.22635,8.91263 -5.24248,14.03805 0.84212,5.78261 4.05682,10.91788 8.25058,14.87289 5.45732,5.8373 12.41721,9.7779 19.68345,12.9485 7.41706,-3.2242 14.53039,-7.2937 20.05693,-13.285 4.97789,-4.67792 8.29456,-11.28946 8.19266,-18.21174 0.10797,-4.99645 -2.98706,-10.27643 -8.09215,-11.3667 -5.71111,-1.58159 -11.49142,-1.30099 -17.35423,-1.05698 0,-3.96548 0,-4.24592 0,-8.2114 3.44868,0 6.60935,0 10.05806,0 0,-1.66823 0.0924,-2.87307 0.0924,-4.54131 -7.89685,0.0556 -17.33587,0.0556 -25.86525,0 z" style="fill:#000;stroke:none;stroke-width:1"/></g></g></svg>