<svg xmlns="http://www.w3.org/2000/svg" xmlns:svg="http://www.w3.org/2000/svg" id="svg2" width="234" height="333" version="1.1"><title id="title898">Two of Spades Playing Card</title><metadata id="metadata7"/><g id="layer1" transform="translate(0,-719.36216)"><g id="g918"><rect id="rect4266" width="233.244" height="332.244" x=".378" y="719.74" rx="8.919" ry="8.946" style="fill:#fff;fill-opacity:1;stroke:gray;stroke-width:.75590551;stroke-linecap:butt;stroke-linejoin:miter;stroke-miterlimit:4;stroke-dasharray:none;stroke-opacity:1"/><path id="path2985-3-11" d="m 12.898825,780.70209 c 0,-0.55605 -0.03079,-0.95768 -0.03079,-1.51377 1.149566,0 2.395148,0 3.544708,0 0,-1.3218 0,-1.41528 0,-2.73712 -2.243931,0.0723 -4.67246,0.23894 -6.7739019,-0.687 -1.6266179,-0.89273 -2.075448,-2.97087 -1.7474947,-4.67934 0.2807048,-1.92755 1.3522742,-3.6393 2.7501936,-4.95764 1.819108,-1.94577 4.139071,-3.2593 6.561151,-4.31616 2.472354,1.07475 4.843466,2.43125 6.685643,4.42831 1.659299,1.55933 2.764852,3.76316 2.730888,6.0706 0.03599,1.6655 -0.995685,3.42548 -2.697384,3.78891 -1.903705,0.52719 -3.830472,0.43365 -5.784745,0.35232 0,1.32184 0,1.41532 0,2.73712 1.14956,0 2.203119,0 3.352688,0 0,0.55609 0.03079,0.95772 0.03079,1.51377 -2.632285,-0.0186 -5.778625,-0.0186 -8.621752,0 z" style="fill:#000;stroke:none;stroke-width:1"/><path id="path2985-3-11-7" d="m 212.48766,991.02222 c 0,0.55606 -0.0308,0.95768 -0.0308,1.51377 1.14955,0 2.39513,0 3.54471,0 0,1.3218 0,1.41528 0,2.73712 -2.24393,-0.0723 -4.67248,-0.23894 -6.77391,0.687 -1.62662,0.89273 -2.07544,2.97087 -1.7475,4.67939 0.28071,1.9275 1.35228,3.6392 2.75018,4.9576 1.81912,1.9458 4.13909,3.2593 6.56118,4.3161 2.47235,-1.0747 4.84345,-2.4312 6.68563,-4.4283 1.65931,-1.5593 2.76487,-3.7631 2.73088,-6.07056 0.036,-1.6655 -0.99569,-3.42548 -2.69737,-3.78891 -1.90372,-0.52719 -3.83047,-0.43365 -5.78475,-0.35232 0,-1.32184 0,-1.41532 0,-2.73712 1.14955,0 2.20314,0 3.35269,0 0,-0.55609 0.0307,-0.95771 0.0307,-1.51377 -2.63231,0.0186 -5.77863,0.0186 -8.62177,0 z" style="fill:#000;stroke:none;stroke-width:1"/><path id="path2985-3-3" d="m 104.07979,814.07624 c 0,-1.66823 -0.0924,-2.87307 -0.0924,-4.5413 3.44871,0 7.18544,0 10.63413,0 0,-3.96545 0,-4.24592 0,-8.2114 -6.7318,0.2169 -14.01738,0.71685 -20.321707,-2.06095 -4.879853,-2.67821 -6.226347,-8.91266 -5.242483,-14.03808 0.842117,-5.78261 4.056819,-10.91785 8.25058,-14.87291 5.45732,-5.83729 12.41721,-9.77784 19.68345,-12.94844 7.41706,3.22422 14.5304,7.29373 20.05693,13.28492 4.97789,4.67796 8.29456,11.2895 8.19266,18.21177 0.10797,4.99649 -2.98706,10.27644 -8.09215,11.36674 -5.71111,1.58155 -11.49141,1.30096 -17.35423,1.05695 0,3.96548 0,4.24595 0,8.2114 3.44868,0 6.60935,0 10.05806,0 0,1.66823 0.0924,2.87307 0.0924,4.5413 -7.89686,-0.0556 -17.33588,-0.0556 -25.86526,0 z" style="fill:#000;stroke:none;stroke-width:1"/><path id="path2985-3-38-2" d="m 104.07979,957.64807 c 0,1.66823 -0.0924,2.87307 -0.0924,4.54131 3.44871,0 7.18544,0 10.63413,0 0,3.96548 0,4.24591 0,8.21139 -6.7318,-0.2169 -14.01738,-0.71685 -20.321707,2.06098 -4.879853,2.67818 -6.226347,8.91263 -5.242483,14.03805 0.842117,5.78261 4.056819,10.91788 8.25058,14.8729 5.45732,5.8373 12.41721,9.7779 19.68345,12.9485 7.41706,-3.2242 14.5304,-7.2937 20.05693,-13.285 4.97789,-4.67793 8.29456,-11.28947 8.19266,-18.21174 0.10797,-4.99646 -2.98706,-10.27644 -8.09215,-11.3667 -5.71111,-1.58159 -11.49141,-1.301 -17.35423,-1.05699 0,-3.96548 0,-4.24591 0,-8.21139 3.44868,0 6.60935,0 10.05806,0 0,-1.66824 0.0924,-2.87308 0.0924,-4.54131 -7.89686,0.0556 -17.33588,0.0556 -25.86526,0 z" style="fill:#000;stroke:none;stroke-width:1"/><g id="text3755-0" aria-label="2" transform="scale(0.98105485,1.019311)" style="font-style:normal;font-variant:normal;font-weight:700;font-stretch:normal;font-size:3.77201176px;line-height:0%;font-family:'Levenim MT';-inkscape-font-specification:'Sans Bold';letter-spacing:0;word-spacing:0;fill:#000;fill-opacity:1;stroke:none;stroke-width:1"><path id="path900" d="m 26.999715,735.55243 -0.710843,5.64831 H 7.9414512 q 0.4226631,-4.86062 3.9192398,-8.58774 l 6.224675,-5.3025 q 3.246821,-2.80495 3.246821,-5.62911 0,-1.88277 -1.07587,-2.99706 -1.056658,-1.13351 -2.920218,-1.13351 -2.151739,0 -3.208397,1.15272 -0.691631,0.76848 -1.056658,2.36307 -0.365027,1.69065 -0.576359,1.95962 -0.307391,0.0961 -0.710842,0.0961 H 9.3631362 q -0.4226631,0 -0.7300545,-0.17291 -0.1344837,-0.40345 -0.1344837,-0.90296 0,-4.0153 2.632038,-6.37837 2.516767,-2.26701 6.551278,-2.26701 3.746332,0 6.128615,1.99804 2.535979,2.11332 2.535979,5.80202 0,3.63106 -2.804946,6.64733 -0.97981,1.07587 -5.571468,4.59166 -3.342881,2.59362 -4.111359,4.66851 h 8.952773 l 0.153695,-1.72908 q 0.211332,-0.92217 1.133506,-0.92217 h 1.921196 q 1.114293,0 0.97981,1.09508 z" style="font-size:39.34609222px;line-height:1.25;stroke-width:1"/></g><g id="text3755-2-2" aria-label="2" transform="scale(-0.98105494,-1.0193109)" style="font-style:normal;font-variant:normal;font-weight:700;font-stretch:normal;font-size:3.77201176px;line-height:0%;font-family:'Levenim MT';-inkscape-font-specification:'Sans Bold';letter-spacing:0;word-spacing:0;fill:#000;fill-opacity:1;stroke:none;stroke-width:1"><path id="path903" d="m -211.51904,-1002.6064 -0.71085,5.64833 h -18.34742 q 0.42267,-4.86063 3.91924,-8.58773 l 6.22468,-5.3025 q 3.24682,-2.805 3.24682,-5.6291 0,-1.8828 -1.07587,-2.9971 -1.05666,-1.1335 -2.92022,-1.1335 -2.15174,0 -3.2084,1.1527 -0.69163,0.7685 -1.05665,2.3631 -0.36503,1.6907 -0.57636,1.9596 -0.30739,0.096 -0.71085,0.096 h -2.4207 q -0.42267,0 -0.73006,-0.1729 -0.13448,-0.4035 -0.13448,-0.903 0,-4.0153 2.63204,-6.3784 2.51676,-2.267 6.55128,-2.267 3.74633,0 6.12861,1.9981 2.53598,2.1133 2.53598,5.802 0,3.631 -2.80495,6.6473 -0.97981,1.0759 -5.57146,4.5917 -3.34289,2.5936 -4.11136,4.6685 h 8.95277 l 0.15369,-1.7291 q 0.21134,-0.9222 1.13351,-0.9222 h 1.9212 q 1.11429,0 0.97981,1.0951 z" style="font-size:39.34609222px;line-height:1.25;stroke-width:1"/></g></g></g></svg>