<svg xmlns="http://www.w3.org/2000/svg" xmlns:svg="http://www.w3.org/2000/svg" id="svg2" width="234" height="333" version="1.1"><title id="title900">Seven of Spades Playing Card</title><metadata id="metadata7"/><g id="layer1" transform="translate(0,-719.36216)"><g id="g925"><rect id="rect4266" width="233.244" height="332.244" x=".378" y="719.74" rx="8.919" ry="8.946" style="fill:#fff;fill-opacity:1;stroke:gray;stroke-width:.75590551;stroke-linecap:butt;stroke-linejoin:miter;stroke-miterlimit:4;stroke-dasharray:none;stroke-opacity:1"/><g id="text3755-0" aria-label="7" transform="scale(1.0298762,0.9709905)" style="font-style:normal;font-variant:normal;font-weight:700;font-stretch:normal;font-size:3.77201176px;line-height:0%;font-family:'Levenim MT';-inkscape-font-specification:'Sans Bold';letter-spacing:0;word-spacing:0;fill:#000;fill-opacity:1;stroke:none;stroke-width:1"><path id="path902" d="m 25.8479,752.97249 -7.709909,24.17272 q -0.30676,0.94073 -1.554252,0.94073 h -3.026702 q -0.940731,0 -0.940731,-0.59307 0,-0.57262 3.86518,-11.57509 2.249575,-6.33971 4.4787,-12.65898 h -9.059654 q -0.06135,0.89983 -0.368113,2.61769 -0.286309,0.18406 -0.61352,0.18406 h -2.37228 q -0.981633,0 -0.981633,-0.71578 0,-0.34766 0.5930699,-6.44196 H 25.8479 Z" style="font-size:41.88300705px;line-height:1.25;stroke-width:1"/></g><g id="text3755-2-2" aria-label="7" transform="scale(-1.0298762,-0.9709905)" style="font-style:normal;font-variant:normal;font-weight:700;font-stretch:normal;font-size:3.77201176px;line-height:0%;font-family:'Levenim MT';-inkscape-font-specification:'Sans Bold';letter-spacing:0;word-spacing:0;fill:#000;fill-opacity:1;stroke:none;stroke-width:1"><path id="path905" d="m -201.36388,-1071.6842 -7.70991,24.1727 q -0.30676,0.9407 -1.55425,0.9407 h -3.02671 q -0.94073,0 -0.94073,-0.5931 0,-0.5726 3.86518,-11.5751 2.24958,-6.3397 4.4787,-12.6589 h -9.05965 q -0.0614,0.8998 -0.36811,2.6177 -0.28631,0.184 -0.61352,0.184 h -2.37228 q -0.98164,0 -0.98164,-0.7158 0,-0.3476 0.59307,-6.4419 h 17.68985 z" style="font-size:41.88301086px;line-height:1.25;stroke-width:1"/></g><path id="path2985-3-11" d="m 12.898825,780.70209 c 0,-0.55605 -0.03079,-0.95768 -0.03079,-1.51377 1.149566,0 2.395148,0 3.544708,0 0,-1.3218 0,-1.41528 0,-2.73712 -2.243931,0.0723 -4.67246,0.23894 -6.7739019,-0.687 -1.6266179,-0.89273 -2.075448,-2.97087 -1.7474947,-4.67934 0.2807048,-1.92755 1.3522742,-3.6393 2.7501936,-4.95764 1.819108,-1.94577 4.139071,-3.2593 6.561151,-4.31616 2.472354,1.07475 4.843466,2.43125 6.685643,4.42831 1.659299,1.55933 2.764852,3.76316 2.730888,6.0706 0.03599,1.6655 -0.995685,3.42548 -2.697384,3.78891 -1.903705,0.52719 -3.830472,0.43365 -5.784745,0.35232 0,1.32184 0,1.41532 0,2.73712 1.14956,0 2.203119,0 3.352688,0 0,0.55609 0.03079,0.95772 0.03079,1.51377 -2.632285,-0.0186 -5.778625,-0.0186 -8.621752,0 z" style="fill:#000;stroke:none;stroke-width:1"/><path id="path2985-3-11-7" d="m 212.48766,991.02222 c 0,0.55606 -0.0308,0.95768 -0.0308,1.51377 1.14955,0 2.39513,0 3.54471,0 0,1.3218 0,1.41528 0,2.73712 -2.24393,-0.0723 -4.67248,-0.23894 -6.77391,0.687 -1.62662,0.89273 -2.07544,2.97087 -1.7475,4.67939 0.28071,1.9275 1.35228,3.6392 2.75018,4.9576 1.81912,1.9458 4.13909,3.2593 6.56118,4.3161 2.47235,-1.0747 4.84345,-2.4312 6.68563,-4.4283 1.65931,-1.5593 2.76487,-3.7631 2.73088,-6.07056 0.036,-1.6655 -0.99569,-3.42548 -2.69737,-3.78891 -1.90372,-0.52719 -3.83047,-0.43365 -5.78475,-0.35232 0,-1.32184 0,-1.41532 0,-2.73712 1.14955,0 2.20314,0 3.35269,0 0,-0.55609 0.0307,-0.95771 0.0307,-1.51377 -2.63231,0.0186 -5.77863,0.0186 -8.62177,0 z" style="fill:#000;stroke:none;stroke-width:1"/><path id="path2985-3-3" d="m 45.70946,814.07624 c 0,-1.66823 -0.09238,-2.87307 -0.09238,-4.5413 3.448704,0 7.185441,0 10.634123,0 0,-3.96545 0,-4.24592 0,-8.2114 -6.731793,0.2169 -14.01738,0.71685 -20.321702,-2.06095 -4.879854,-2.67821 -6.226348,-8.91266 -5.242485,-14.03808 0.842118,-5.78261 4.056821,-10.91785 8.250581,-14.87291 5.457325,-5.83729 12.417214,-9.77784 19.683448,-12.94844 7.417061,3.22422 14.530399,7.29373 20.056933,13.28492 4.977887,4.67796 8.294558,11.2895 8.192664,18.21177 0.107967,4.99649 -2.987067,10.27644 -8.092154,11.36674 -5.711113,1.58155 -11.491414,1.30096 -17.35423,1.05695 0,3.96548 0,4.24595 0,8.2114 3.448679,0 6.609354,0 10.058058,0 0,1.66823 0.0924,2.87307 0.0924,4.5413 -7.896858,-0.0556 -17.335871,-0.0556 -25.865256,0 z" style="fill:#000;stroke:none;stroke-width:1"/><path id="path2985-3-3-5" d="m 162.45012,814.07624 c 0,-1.66823 -0.0924,-2.87307 -0.0924,-4.5413 3.44871,0 7.18544,0 10.63413,0 0,-3.96545 0,-4.24592 0,-8.2114 -6.7318,0.2169 -14.01738,0.71685 -20.3217,-2.06095 -4.87986,-2.67821 -6.22636,-8.91266 -5.24249,-14.03808 0.84212,-5.78261 4.05682,-10.91785 8.25058,-14.87291 5.45733,-5.83729 12.41722,-9.77784 19.68345,-12.94844 7.41706,3.22422 14.5304,7.29373 20.05693,13.28492 4.97789,4.67796 8.29456,11.2895 8.19267,18.21177 0.10796,4.99649 -2.98707,10.27644 -8.09216,11.36674 -5.71111,1.58155 -11.49141,1.30096 -17.35423,1.05695 0,3.96548 0,4.24595 0,8.2114 3.44868,0 6.60936,0 10.05806,0 0,1.66823 0.0924,2.87307 0.0924,4.5413 -7.89686,-0.0556 -17.33587,-0.0556 -25.86526,0 z" style="fill:#000;stroke:none;stroke-width:1"/><path id="path2985-3-3-5-4" d="m 104.07979,864.13747 c 0,-1.66823 -0.0924,-2.87307 -0.0924,-4.54131 3.4487,0 7.18544,0 10.63412,0 0,-3.96544 0,-4.24591 0,-8.21139 -6.73179,0.2169 -14.01738,0.71685 -20.321703,-2.06095 -4.879857,-2.67821 -6.226351,-8.91266 -5.242487,-14.03808 0.842117,-5.78261 4.056822,-10.91785 8.250583,-14.87291 5.457327,-5.8373 12.417217,-9.77784 19.683447,-12.94845 7.41706,3.22423 14.5304,7.29374 20.05693,13.28493 4.97789,4.67796 8.29456,11.2895 8.19267,18.21177 0.10796,4.99649 -2.98707,10.27644 -8.09216,11.36674 -5.71111,1.58155 -11.49141,1.30096 -17.35423,1.05695 0,3.96548 0,4.24595 0,8.21139 3.44868,0 6.60936,0 10.05806,0 0,1.66824 0.0924,2.87308 0.0924,4.54131 -7.89686,-0.0556 -17.33587,-0.0556 -25.86526,0 z" style="fill:#000;stroke:none;stroke-width:1"/><path id="path2985-3-3-5-4-3" d="m 45.709463,914.1987 c 0,-1.66824 -0.09238,-2.87307 -0.09238,-4.54131 3.448704,0 7.185441,0 10.634123,0 0,-3.96545 0,-4.24592 0,-8.21139 -6.731793,0.2169 -14.01738,0.71685 -20.321702,-2.06095 -4.879857,-2.67822 -6.226351,-8.91266 -5.242488,-14.03808 0.842118,-5.78261 4.056824,-10.91785 8.250584,-14.87291 5.457325,-5.8373 12.417214,-9.77784 19.683448,-12.94845 7.417061,3.22423 14.530399,7.29373 20.056933,13.28493 4.977887,4.67795 8.294558,11.2895 8.192665,18.21177 0.107966,4.99649 -2.987068,10.27644 -8.092155,11.36673 -5.711113,1.58156 -11.491414,1.30097 -17.35423,1.05696 0,3.96547 0,4.24594 0,8.21139 3.448679,0 6.609354,0 10.058058,0 0,1.66824 0.0924,2.87307 0.0924,4.54131 -7.896859,-0.0556 -17.335872,-0.0556 -25.865258,0 z" style="fill:#000;stroke:none;stroke-width:1"/><path id="path2985-3-3-5-4-3-1" d="m 162.45012,914.1987 c 0,-1.66824 -0.0924,-2.87307 -0.0924,-4.54131 3.44871,0 7.18544,0 10.63413,0 0,-3.96545 0,-4.24592 0,-8.21139 -6.7318,0.2169 -14.01738,0.71685 -20.3217,-2.06095 -4.87986,-2.67822 -6.22636,-8.91266 -5.24249,-14.03808 0.84212,-5.78261 4.05682,-10.91785 8.25058,-14.87291 5.45733,-5.8373 12.41722,-9.77784 19.68345,-12.94845 7.41706,3.22423 14.5304,7.29373 20.05693,13.28493 4.97789,4.67795 8.29456,11.2895 8.19267,18.21177 0.10796,4.99649 -2.98707,10.27644 -8.09216,11.36673 -5.71111,1.58156 -11.49141,1.30097 -17.35423,1.05696 0,3.96547 0,4.24594 0,8.21139 3.44868,0 6.60936,0 10.05806,0 0,1.66824 0.0924,2.87307 0.0924,4.54131 -7.89686,-0.0556 -17.33587,-0.0556 -25.86526,0 z" style="fill:#000;stroke:none;stroke-width:1"/><path id="path2985-3-38-2" d="m 45.70946,957.64807 c 0,1.66823 -0.09238,2.87307 -0.09238,4.54131 3.448704,0 7.185441,0 10.634123,0 0,3.96548 0,4.24591 0,8.21139 -6.731793,-0.2169 -14.01738,-0.71685 -20.321702,2.06098 -4.879854,2.67818 -6.226348,8.91263 -5.242485,14.03805 0.842118,5.78261 4.056821,10.91788 8.250581,14.8729 5.457325,5.8373 12.417214,9.7779 19.683448,12.9485 7.417061,-3.2242 14.530399,-7.2937 20.056933,-13.285 4.977887,-4.67793 8.294558,-11.28947 8.192664,-18.21174 0.107967,-4.99646 -2.987067,-10.27644 -8.092154,-11.3667 -5.711113,-1.58159 -11.491414,-1.301 -17.35423,-1.05699 0,-3.96548 0,-4.24591 0,-8.21139 3.448679,0 6.609354,0 10.058058,0 0,-1.66824 0.0924,-2.87308 0.0924,-4.54131 -7.896858,0.0556 -17.335871,0.0556 -25.865256,0 z" style="fill:#000;stroke:none;stroke-width:1"/><path id="path2985-3-38-2-3" d="m 162.45012,957.64807 c 0,1.66824 -0.0924,2.87308 -0.0924,4.54131 3.44871,0 7.18544,0 10.63412,0 0,3.96548 0,4.24592 0,8.2114 -6.73179,-0.2169 -14.01738,-0.71685 -20.3217,2.06098 -4.87985,2.67818 -6.22635,8.91263 -5.24248,14.03805 0.84212,5.78261 4.05682,10.91788 8.25058,14.87289 5.45732,5.8373 12.41721,9.7779 19.68345,12.9485 7.41706,-3.2242 14.53039,-7.2937 20.05693,-13.285 4.97789,-4.67792 8.29456,-11.28946 8.19266,-18.21174 0.10797,-4.99645 -2.98706,-10.27643 -8.09215,-11.3667 -5.71111,-1.58159 -11.49142,-1.30099 -17.35423,-1.05698 0,-3.96548 0,-4.24592 0,-8.2114 3.44868,0 6.60935,0 10.05806,0 0,-1.66823 0.0924,-2.87307 0.0924,-4.54131 -7.89685,0.0556 -17.33587,0.0556 -25.86525,0 z" style="fill:#000;stroke:none;stroke-width:1"/></g></g></svg>